<svg xmlns="http://www.w3.org/2000/svg" viewBox="0 0 512 512" fill="#fff">
  <path d="M404.337 102.273l41.678-41.678c24.261-24.26 63.516-24.26 87.776 0 24.26 24.26 24.26 63.515 0 87.775l-77.883 77.884-51.571-51.572zM185.795 44.636l-87.775 87.776-77.884-77.884c-24.26-24.261-24.26-63.516 0-87.776s63.515-24.26 87.775 0l77.884 77.884zM256 160c-53.019 0-96 42.981-96 96 0 53.019 42.981 96 96 96s96-42.981 96-96c0-53.019-42.981-96-96-96zm32-192c17.673 0 32 14.327 32 32v64h32c17.673 0 32 14.327 32 32s-14.327 32-32 32h-32v128c0 17.673-14.327 32-32 32s-32-14.327-32-32V32c0-17.673 14.327-32 32-32zm192 128c17.673 0 32 14.327 32 32v64h32c17.673 0 32 14.327 32 32s-14.327 32-32 32h-32v96c0 17.673-14.327 32-32 32s-32-14.327-32-32V96c0-17.673 14.327-32 32-32z"/>
</svg>
